<svg width="1007" height="280" viewBox="0 0 1007 280" fill="none" xmlns="http://www.w3.org/2000/svg">
<path d="M499.768 115.878C499.768 110.692 499.768 115.878 499.768 111.594C499.768 105.405 499.768 108.587 499.768 102.424C499.795 99.5733 500.952 96.8499 502.987 94.853C505.022 92.856 507.766 91.7491 510.617 91.7757C513.467 91.8023 516.191 92.9602 518.188 94.9947C520.185 97.0293 521.292 99.7737 521.265 102.624C521.265 122.368 521.265 123.37 521.265 143.113C521.493 145.446 520.95 147.79 519.719 149.786C518.489 151.781 516.638 153.319 514.45 154.162C512.335 155.086 509.966 155.252 507.742 154.631C505.519 154.01 503.579 152.641 502.248 150.755C493.479 140.407 484.91 129.884 476.292 119.411L445.524 81.8289C444.948 81.1024 444.272 80.4509 442.819 78.8975V83.9085C442.819 103.401 442.819 122.919 442.819 142.411C443.029 144.43 442.699 146.468 441.862 148.317C441.026 150.166 439.713 151.76 438.058 152.934C436.536 153.98 434.771 154.617 432.931 154.783C431.092 154.95 429.241 154.642 427.556 153.887C425.87 153.132 424.407 151.957 423.306 150.474C422.206 148.991 421.505 147.25 421.271 145.418C421.121 144.003 421.071 142.58 421.121 141.159V54.7448C421.121 53.4419 421.121 52.2393 421.121 50.8112C421.124 48.6062 421.813 46.4568 423.093 44.661C424.372 42.8653 426.179 41.5121 428.262 40.7893C430.28 39.9842 432.505 39.8567 434.602 40.4261C436.698 40.9955 438.553 42.2309 439.887 43.9462C446.351 51.4626 452.59 58.979 458.828 66.7209C471.807 82.5555 484.76 98.4235 497.688 114.325C498.189 114.525 498.565 114.801 499.768 115.878Z" fill="#373435"/>
<path d="M618.678 108.813C619.559 110.789 620.304 112.823 620.908 114.901C621.553 117.169 621.333 119.595 620.292 121.711C619.25 123.826 617.461 125.479 615.27 126.351C613.156 127.35 610.777 127.646 608.482 127.195C606.187 126.744 604.097 125.571 602.518 123.846C601.932 123.253 601.45 122.567 601.09 121.816C598.584 115.377 594.024 113.423 587.385 114.3C583.705 114.713 579.99 114.713 576.31 114.3C572.828 114.024 572.126 115.477 572.201 118.584C572.377 126.802 572.201 135.02 572.201 143.213C572.201 150.153 567.842 154.863 561.478 154.964C555.114 155.064 550.704 150.278 550.704 143.288C550.704 112.688 550.704 82.1045 550.704 51.5377C550.704 44.2718 554.964 40.1127 562.33 40.0877C574.857 40.0877 587.385 39.8121 599.912 40.238C612.439 40.6639 622.612 45.0736 629.852 55.6216C639.173 69.1762 638.296 96.0099 620.231 107.485C619.681 107.888 619.162 108.332 618.678 108.813ZM572.252 78.2461C572.252 83.257 572.252 88.268 572.252 93.2789C572.252 94.1809 573.479 95.7844 574.131 95.7844C583.323 96.0814 592.525 95.8472 601.691 95.0829C610.184 94.0807 614.394 86.6394 613.918 76.1916C613.542 67.8984 608.631 62.1358 600.313 61.5095C591.995 60.8831 583.175 61.1587 574.607 60.9833C572.652 60.9833 572.226 61.9855 572.252 63.6642C572.302 68.4747 572.252 73.3353 572.252 78.1959V78.2461Z" fill="#373435"/>
<path d="M333.655 61.8352V66.4452C333.655 91.9009 333.655 117.357 333.655 142.812C333.655 149.301 330.899 153.11 325.362 154.588C324.016 154.961 322.609 155.063 321.224 154.885C319.839 154.708 318.502 154.257 317.294 153.557C316.085 152.857 315.028 151.922 314.185 150.809C313.342 149.695 312.73 148.425 312.384 147.071C311.986 145.33 311.801 143.546 311.833 141.76C311.833 112.496 311.833 83.2319 311.833 54.0682C311.833 45.4744 315.766 39.8872 325.763 40.2129C338.641 40.6389 351.544 40.4134 364.422 40.2129C383.639 40.0626 395.991 52.7403 399.499 70.5041C401.578 80.8013 399.794 91.5035 394.488 100.57C393.881 101.866 393.02 103.026 391.956 103.983C390.892 104.94 389.647 105.674 388.294 106.142C386.941 106.609 385.509 106.8 384.081 106.704C382.653 106.607 381.259 106.225 379.982 105.581C378.637 104.991 377.435 104.121 376.455 103.029C375.474 101.936 374.739 100.647 374.297 99.247C373.856 97.8471 373.719 96.3691 373.896 94.912C374.072 93.4549 374.558 92.0524 375.321 90.7985C377.108 87.8372 378.21 84.5145 378.548 81.0727C378.886 77.631 378.451 74.1572 377.276 70.905C375.422 65.894 372.089 62.211 366.677 62.0356C355.929 61.5846 345.08 61.8352 333.655 61.8352Z" fill="#373435"/>
<path d="M355.352 119.461C361.413 119.461 366.326 114.548 366.326 108.487C366.326 102.426 361.413 97.5132 355.352 97.5132C349.292 97.5132 344.378 102.426 344.378 108.487C344.378 114.548 349.292 119.461 355.352 119.461Z" fill="#488FF7"/>
<path d="M510.416 62.0107C516.477 62.0107 521.39 57.0974 521.39 51.0367C521.39 44.9759 516.477 40.0627 510.416 40.0627C504.356 40.0627 499.443 44.9759 499.443 51.0367C499.443 57.0974 504.356 62.0107 510.416 62.0107Z" fill="#488FF7"/>
<path d="M510.416 87.3911C516.477 87.3911 521.39 82.4779 521.39 76.4172C521.39 70.3564 516.477 65.4432 510.416 65.4432C504.356 65.4432 499.443 70.3564 499.443 76.4172C499.443 82.4779 504.356 87.3911 510.416 87.3911Z" fill="#488FF7"/>
<path d="M629.201 154.939C635.262 154.939 640.175 150.025 640.175 143.965C640.175 137.904 635.262 132.991 629.201 132.991C623.141 132.991 618.227 137.904 618.227 143.965C618.227 150.025 623.141 154.939 629.201 154.939Z" fill="#488FF7"/>
<path d="M86.482 216.574C84.7558 215.577 83.3169 214.151 82.3052 212.433C81.2723 210.718 80.732 208.752 80.7435 206.749C80.7303 204.821 81.2724 202.93 82.3052 201.301C83.3376 199.666 84.7768 198.327 86.482 197.415C88.234 196.454 90.204 195.96 92.2024 195.981H95.6346V192.657H102.989V206.768C103.016 208.756 102.535 210.719 101.591 212.47C100.701 214.165 99.3712 215.588 97.7411 216.592C96.0813 217.628 94.1585 218.164 92.2024 218.136C90.1885 218.149 88.2096 217.609 86.482 216.574ZM94.6539 209.31C94.9783 208.976 95.2323 208.581 95.4008 208.147C95.5692 207.714 95.6488 207.251 95.6346 206.786V203.462H92.2024C91.2772 203.446 90.3809 203.784 89.6963 204.407C89.3657 204.707 89.1038 205.075 88.9283 205.485C88.7528 205.896 88.6679 206.339 88.6793 206.786C88.6694 207.251 88.7538 207.714 88.9273 208.145C89.1009 208.577 89.36 208.97 89.6891 209.299C90.0183 209.628 90.4106 209.887 90.8425 210.061C91.2744 210.234 91.737 210.319 92.2024 210.309C92.6604 210.315 93.1149 210.227 93.5369 210.049C93.9589 209.871 94.3394 209.607 94.6539 209.274V209.31ZM100.683 218.39C99.3406 217.495 98.282 216.235 97.6321 214.758C96.9088 213.213 96.5427 211.524 96.5607 209.818V200.266H102.989V209.346C102.973 209.68 103.027 210.014 103.145 210.326C103.264 210.638 103.446 210.923 103.679 211.162C103.901 211.389 104.167 211.568 104.46 211.686C104.754 211.805 105.07 211.862 105.386 211.852H107.566C107.911 211.852 108.074 212.034 108.074 212.379V219.171C108.087 219.24 108.083 219.312 108.062 219.38C108.041 219.447 108.004 219.509 107.954 219.559C107.904 219.609 107.842 219.646 107.775 219.667C107.707 219.688 107.635 219.692 107.566 219.679H105.314C103.676 219.703 102.067 219.248 100.683 218.372V218.39Z" fill="#488FF7"/>
<path d="M107.13 219.153V212.361C107.121 212.29 107.128 212.217 107.152 212.149C107.175 212.081 107.214 212.02 107.264 211.969C107.315 211.918 107.377 211.88 107.445 211.856C107.513 211.833 107.585 211.825 107.656 211.834H110.453C110.77 211.839 111.084 211.776 111.375 211.651C111.666 211.526 111.927 211.341 112.142 211.108C112.364 210.883 112.539 210.616 112.657 210.323C112.776 210.03 112.835 209.717 112.832 209.401V198.759H120.259V209.873C120.272 211.589 119.82 213.277 118.952 214.758C118.12 216.259 116.904 217.512 115.429 218.39C113.937 219.263 112.236 219.715 110.507 219.697H107.656C107.221 219.661 107.13 219.498 107.13 219.153ZM112.905 187.718H119.533V194.419H112.905V187.718Z" fill="#488FF7"/>
<path d="M129.031 218.353C127.556 217.476 126.34 216.223 125.508 214.721C124.639 213.241 124.187 211.553 124.2 209.836V184.721H131.682V209.401C131.663 209.733 131.712 210.066 131.828 210.379C131.944 210.691 132.123 210.977 132.354 211.217C132.567 211.439 132.824 211.614 133.109 211.733C133.393 211.852 133.698 211.911 134.006 211.907H136.857C136.929 211.898 137.001 211.905 137.069 211.929C137.137 211.952 137.199 211.991 137.249 212.041C137.3 212.092 137.339 212.154 137.362 212.222C137.385 212.29 137.393 212.362 137.384 212.433V219.225C137.384 219.57 137.202 219.734 136.857 219.734H133.952C132.217 219.729 130.515 219.252 129.031 218.353Z" fill="#488FF7"/>
<path d="M136.349 219.153V212.361C136.349 212.016 136.512 211.834 136.857 211.834H142.469C142.786 211.839 143.1 211.776 143.391 211.651C143.682 211.526 143.943 211.341 144.158 211.108C144.38 210.883 144.555 210.616 144.673 210.323C144.792 210.03 144.851 209.717 144.848 209.401V198.759H152.257V209.873C152.276 211.588 151.831 213.276 150.968 214.758C150.13 216.255 148.915 217.507 147.445 218.39C145.953 219.263 144.252 219.715 142.523 219.697H136.857C136.784 219.713 136.708 219.709 136.637 219.686C136.565 219.664 136.501 219.623 136.45 219.568C136.399 219.513 136.363 219.446 136.345 219.374C136.327 219.301 136.329 219.225 136.349 219.153ZM136.912 224.128H143.558V230.757H136.912V224.128ZM146.246 224.128H152.947V230.757H146.246V224.128Z" fill="#488FF7"/>
<path d="M156.561 184.721H164.042V219.661H156.561V184.721Z" fill="#488FF7"/>
<path d="M166.276 224.691C167.212 223.968 167.928 223 168.346 221.895C168.742 220.477 168.914 219.007 168.855 217.536V200.321H176.337V217.536C176.412 219.968 176.043 222.393 175.247 224.691C174.449 226.655 173.161 228.38 171.506 229.703C169.133 231.553 166.556 233.125 163.825 234.389L161.028 228.123C162.862 227.115 164.617 225.967 166.276 224.691Z" fill="#488FF7"/>
<path d="M197.802 226.544C195.275 225.07 193.173 222.968 191.7 220.442C190.203 217.914 189.425 215.026 189.448 212.088V202.391H196.912V211.689C196.903 213.312 197.336 214.906 198.165 216.301C198.972 217.702 200.138 218.862 201.543 219.661C202.937 220.492 204.532 220.926 206.155 220.914C207.802 220.929 209.421 220.496 210.84 219.661C212.248 218.859 213.42 217.699 214.236 216.299C215.052 214.9 215.485 213.309 215.489 211.689V200.321H222.753V212.088C222.771 215.02 222.007 217.904 220.538 220.442C219.105 222.963 217.04 225.066 214.545 226.544C212.027 228.048 209.143 228.828 206.21 228.795C203.254 228.829 200.345 228.05 197.802 226.544ZM202.668 195.508H209.369V202.137H202.668V195.508ZM220.084 217.046C218.967 214.794 218.454 212.291 218.595 209.782V200.23H223.007V209.31C222.992 209.644 223.045 209.977 223.163 210.29C223.282 210.602 223.464 210.887 223.698 211.126C223.919 211.347 224.183 211.522 224.473 211.641C224.763 211.759 225.073 211.819 225.386 211.816H227.62C227.691 211.807 227.764 211.815 227.832 211.838C227.9 211.861 227.961 211.9 228.012 211.951C228.063 212.001 228.101 212.063 228.125 212.131C228.148 212.199 228.156 212.271 228.147 212.343V219.134C228.147 219.479 227.965 219.643 227.62 219.643H225.386C224.348 219.754 223.298 219.569 222.36 219.11C221.422 218.65 220.633 217.935 220.084 217.046Z" fill="#488FF7"/>
<path d="M227.112 219.153V212.361C227.112 212.016 227.275 211.834 227.62 211.834H233.213C233.531 211.842 233.846 211.781 234.137 211.656C234.429 211.531 234.69 211.344 234.902 211.108C235.13 210.886 235.31 210.621 235.432 210.327C235.553 210.034 235.614 209.718 235.61 209.401V198.759H243.02V209.873C243.03 211.587 242.585 213.272 241.73 214.758C240.887 216.251 239.674 217.502 238.207 218.39C236.709 219.264 235.002 219.715 233.268 219.697H227.62C227.547 219.713 227.471 219.709 227.399 219.686C227.328 219.664 227.264 219.623 227.213 219.568C227.161 219.513 227.125 219.446 227.108 219.374C227.09 219.301 227.091 219.225 227.112 219.153ZM227.675 224.128H234.248V230.757H227.62L227.675 224.128ZM237.009 224.128H243.692V230.757H237.009V224.128Z" fill="#488FF7"/>
<path d="M258.038 224.6C259.207 224.024 260.255 223.229 261.125 222.258C261.685 221.51 261.979 220.596 261.96 219.661H258.583C256.594 219.688 254.631 219.207 252.88 218.263C251.184 217.366 249.76 216.03 248.758 214.395C247.747 212.758 247.219 210.87 247.233 208.947C247.214 206.943 247.742 204.972 248.758 203.245C249.755 201.539 251.175 200.119 252.88 199.122C254.607 198.106 256.579 197.578 258.583 197.597C260.505 197.591 262.391 198.12 264.031 199.122C265.667 200.13 267.007 201.552 267.917 203.245C268.852 204.999 269.333 206.959 269.315 208.947V216.519C269.423 219.2 268.92 221.87 267.844 224.328C266.747 226.429 265.119 228.207 263.123 229.485C260.059 231.4 256.839 233.052 253.498 234.425L251.173 227.851C254.248 226.519 256.537 225.436 258.038 224.6ZM261.96 212.306V208.82C261.972 208.362 261.893 207.906 261.728 207.479C261.563 207.052 261.315 206.662 260.998 206.332C260.684 206.011 260.308 205.759 259.892 205.59C259.477 205.422 259.031 205.34 258.583 205.351C258.118 205.34 257.656 205.421 257.222 205.589C256.789 205.757 256.394 206.01 256.058 206.332C255.42 207.006 255.064 207.9 255.064 208.829C255.064 209.758 255.42 210.651 256.058 211.326C256.394 211.648 256.789 211.9 257.222 212.068C257.656 212.237 258.118 212.317 258.583 212.306H261.96ZM269.006 211.834H271.494C271.565 211.825 271.638 211.833 271.706 211.856C271.774 211.88 271.835 211.918 271.886 211.969C271.937 212.02 271.975 212.081 271.999 212.149C272.022 212.217 272.03 212.29 272.021 212.361V219.153C272.021 219.498 271.839 219.661 271.494 219.661H269.006V211.834Z" fill="#488FF7"/>
<path d="M270.986 219.153V212.361C270.986 212.016 271.149 211.834 271.494 211.834H274.291C274.607 211.839 274.922 211.776 275.213 211.651C275.504 211.526 275.765 211.341 275.98 211.108C276.207 210.886 276.387 210.621 276.509 210.327C276.631 210.034 276.692 209.718 276.688 209.401V198.759H284.097V209.873C284.107 211.587 283.662 213.272 282.808 214.758C281.963 216.256 280.743 217.508 279.266 218.39C277.776 219.265 276.074 219.718 274.345 219.697H271.494C271.421 219.713 271.345 219.709 271.273 219.686C271.202 219.663 271.138 219.623 271.086 219.568C271.035 219.513 270.999 219.446 270.982 219.374C270.964 219.301 270.965 219.225 270.986 219.153ZM276.833 187.718H283.479V194.419H276.833V187.718Z" fill="#488FF7"/>
<path d="M305.417 226.544C302.89 225.07 300.788 222.968 299.315 220.442C297.819 217.914 297.04 215.026 297.063 212.088V202.391H304.527V211.689C304.518 213.312 304.951 214.906 305.78 216.301C306.593 217.702 307.758 218.864 309.16 219.674C310.562 220.483 312.152 220.911 313.77 220.914C315.402 220.914 317.005 220.488 318.423 219.679C319.84 218.87 321.021 217.706 321.851 216.301C322.68 214.906 323.113 213.312 323.105 211.689V200.321H330.368V212.088C330.387 215.02 329.622 217.904 328.153 220.442C326.721 222.963 324.655 225.066 322.16 226.544C319.642 228.047 316.758 228.826 313.825 228.795C310.869 228.829 307.961 228.05 305.417 226.544ZM327.681 217.155C326.58 214.898 326.074 212.398 326.21 209.891V200.248H330.623V209.51C330.615 209.829 330.672 210.146 330.791 210.443C330.909 210.74 331.087 211.009 331.313 211.235C331.531 211.462 331.793 211.642 332.084 211.764C332.374 211.886 332.687 211.947 333.002 211.943C333.32 211.954 333.637 211.896 333.932 211.774C334.226 211.652 334.491 211.468 334.709 211.235C334.934 211.009 335.112 210.74 335.231 210.443C335.349 210.146 335.406 209.829 335.399 209.51V200.321H341.391V209.964C341.49 212.487 340.721 214.967 339.212 216.992C338.479 217.913 337.536 218.646 336.462 219.129C335.388 219.613 334.214 219.832 333.038 219.77C331.989 219.884 330.93 219.698 329.982 219.236C329.034 218.773 328.236 218.052 327.681 217.155ZM331.131 189.334H337.759V195.962H331.059L331.131 189.334ZM331.131 180H337.759V186.683H331.059L331.131 180ZM339.067 216.992C337.558 214.967 336.789 212.487 336.888 209.964V200.321H342.862V209.51C342.851 209.828 342.905 210.145 343.021 210.441C343.136 210.738 343.311 211.008 343.534 211.235C343.753 211.467 344.018 211.65 344.312 211.772C344.606 211.894 344.923 211.953 345.241 211.943C345.56 211.954 345.877 211.896 346.172 211.774C346.466 211.652 346.731 211.468 346.948 211.235C347.172 211.008 347.346 210.738 347.462 210.441C347.577 210.145 347.631 209.828 347.62 209.51V198.759H353.595V209.964C353.695 212.492 352.912 214.977 351.379 216.992C350.609 217.865 349.662 218.564 348.6 219.044C347.539 219.523 346.388 219.771 345.223 219.771C344.059 219.771 342.907 219.523 341.846 219.044C340.785 218.564 339.837 217.865 339.067 216.992ZM340.52 189.334H347.166V195.962H340.52V189.334ZM351.289 216.901C349.756 214.887 348.973 212.402 349.073 209.873V198.759H355.048V209.401C355.032 209.735 355.085 210.068 355.204 210.381C355.322 210.693 355.504 210.978 355.738 211.217C355.959 211.438 356.223 211.613 356.513 211.731C356.803 211.85 357.113 211.91 357.427 211.907H359.66C359.731 211.898 359.804 211.905 359.872 211.929C359.94 211.952 360.001 211.991 360.052 212.041C360.103 212.092 360.141 212.154 360.165 212.222C360.188 212.29 360.196 212.362 360.187 212.433V219.225C360.187 219.57 360.005 219.734 359.66 219.734H357.427C356.252 219.781 355.084 219.548 354.017 219.056C352.95 218.564 352.015 217.825 351.289 216.901Z" fill="#373435"/>
<path d="M375.477 211.834C375.93 211.844 376.38 211.756 376.797 211.578C377.213 211.399 377.587 211.134 377.892 210.799C378.502 210.178 378.847 209.345 378.855 208.475C378.849 207.602 378.511 206.764 377.91 206.132C377.605 205.792 377.229 205.523 376.809 205.344C376.388 205.165 375.934 205.081 375.477 205.097C375.025 205.079 374.574 205.157 374.155 205.326C373.736 205.495 373.357 205.751 373.044 206.077C372.734 206.393 372.49 206.768 372.328 207.18C372.166 207.592 372.088 208.032 372.099 208.475C372.078 208.933 372.159 209.39 372.334 209.814C372.51 210.237 372.777 210.617 373.116 210.926C373.759 211.518 374.603 211.843 375.477 211.834H387.244C387.708 211.85 388.17 211.773 388.604 211.607C389.037 211.442 389.433 211.192 389.769 210.872C390.086 210.556 390.337 210.181 390.508 209.768C390.68 209.355 390.768 208.913 390.768 208.465C390.768 208.018 390.68 207.576 390.508 207.163C390.337 206.75 390.086 206.375 389.769 206.059C389.433 205.739 389.037 205.489 388.604 205.324C388.17 205.158 387.708 205.081 387.244 205.097H361.821V197.669H387.244C389.235 197.646 391.198 198.134 392.947 199.086C394.642 199.976 396.065 201.306 397.069 202.936C398.105 204.596 398.64 206.518 398.613 208.475C398.625 210.454 398.084 212.398 397.051 214.086C396.032 215.783 394.593 217.19 392.874 218.172C391.163 219.16 389.22 219.674 387.244 219.661H375.059C373.031 219.712 371.037 219.128 369.357 217.99C367.797 216.899 366.546 215.422 365.725 213.705C364.919 212.078 364.497 210.289 364.49 208.475C364.51 206.784 364.994 205.132 365.889 203.699C366.837 202.081 368.18 200.731 369.793 199.776C371.51 198.751 373.477 198.222 375.477 198.251C377.636 198.131 379.761 198.824 381.433 200.194C382.795 201.349 383.834 202.838 384.448 204.516C384.933 205.783 385.215 207.119 385.283 208.475C385.359 210.658 384.831 212.819 383.758 214.722C382.816 216.269 381.465 217.526 379.853 218.353C378.379 219.145 376.733 219.563 375.059 219.57H359.551L359.66 211.743L375.477 211.834Z" fill="#373435"/>
<path d="M413.358 224.6C414.531 224.029 415.58 223.234 416.445 222.258C417.013 221.514 417.308 220.597 417.281 219.661H413.903C411.914 219.688 409.951 219.207 408.201 218.263C406.505 217.366 405.081 216.03 404.079 214.395C403.068 212.758 402.539 210.87 402.553 208.947C402.535 206.943 403.062 204.972 404.079 203.245C405.076 201.539 406.495 200.119 408.201 199.122C409.928 198.106 411.899 197.578 413.903 197.597C415.826 197.589 417.712 198.117 419.351 199.122C420.992 200.124 422.334 201.547 423.237 203.245C424.181 204.995 424.663 206.958 424.635 208.947V216.519C424.743 219.2 424.24 221.87 423.164 224.328C422.063 226.453 420.414 228.246 418.388 229.522C415.327 231.44 412.107 233.092 408.764 234.461L406.439 227.887C409.551 226.531 411.857 225.436 413.358 224.6ZM417.281 212.306V208.82C417.292 208.362 417.213 207.906 417.048 207.479C416.883 207.052 416.635 206.662 416.318 206.332C416.005 206.01 415.629 205.757 415.213 205.589C414.798 205.42 414.351 205.339 413.903 205.351C413.441 205.338 412.981 205.419 412.55 205.587C412.12 205.755 411.728 206.009 411.397 206.332C410.758 207.006 410.402 207.9 410.402 208.829C410.402 209.758 410.758 210.651 411.397 211.326C411.728 211.649 412.12 211.902 412.55 212.07C412.981 212.239 413.441 212.319 413.903 212.306H417.281Z" fill="#373435"/>
<path d="M429.121 225.218C429.881 224.298 430.421 223.218 430.701 222.058C430.986 220.568 431.107 219.052 431.064 217.536V200.321H438.491V217.536C438.546 219.862 438.277 222.185 437.692 224.437C437.142 226.251 436.213 227.928 434.968 229.358C433.261 231.229 431.362 232.915 429.302 234.389L425.162 228.941C426.619 227.855 427.947 226.605 429.121 225.218ZM428.848 189.225H435.477V195.908H428.848V189.225ZM435.15 216.973C433.839 214.845 433.206 212.369 433.334 209.873V200.321H438.528V209.401C438.508 209.733 438.558 210.066 438.674 210.379C438.789 210.691 438.968 210.977 439.199 211.217C439.421 211.443 439.687 211.621 439.981 211.739C440.275 211.858 440.59 211.915 440.906 211.907H444.756C445.101 211.907 445.265 212.088 445.265 212.433V219.225C445.278 219.295 445.274 219.366 445.253 219.434C445.232 219.502 445.195 219.563 445.145 219.613C445.095 219.663 445.033 219.701 444.965 219.722C444.898 219.742 444.826 219.747 444.756 219.734H440.906C439.789 219.817 438.67 219.605 437.66 219.121C436.65 218.637 435.785 217.896 435.15 216.973ZM428.848 180.654H435.477V187.282H428.848V180.654ZM438.182 189.207H444.902V195.89H438.182V189.207Z" fill="#373435"/>
<path d="M444.194 219.153V212.361C444.181 212.289 444.186 212.215 444.208 212.145C444.23 212.075 444.268 212.012 444.32 211.96C444.372 211.908 444.435 211.87 444.505 211.848C444.575 211.826 444.649 211.821 444.721 211.834H450.35C450.667 211.839 450.981 211.776 451.272 211.651C451.563 211.526 451.825 211.341 452.039 211.108C452.261 210.883 452.436 210.616 452.555 210.323C452.673 210.03 452.732 209.717 452.729 209.401V198.759H460.157V209.873C460.169 211.589 459.718 213.277 458.849 214.758C458.017 216.259 456.801 217.512 455.326 218.39C453.834 219.263 452.133 219.715 450.405 219.697H444.721C444.358 219.661 444.194 219.498 444.194 219.153ZM444.666 224.074H451.349V230.72H444.666V224.074ZM454.001 233.354H460.629V240H453.982L454.001 233.354ZM454.001 224.074H460.629V230.72H453.982L454.001 224.074Z" fill="#373435"/>
<path d="M478.97 216.574C477.244 215.577 475.805 214.151 474.793 212.433C473.76 210.718 473.22 208.752 473.232 206.749C473.218 204.821 473.76 202.93 474.793 201.301C475.826 199.666 477.265 198.327 478.97 197.415C480.722 196.454 482.692 195.96 484.69 195.981H488.123V192.657H495.477V206.768C495.504 208.756 495.023 210.719 494.079 212.47C493.189 214.165 491.859 215.588 490.229 216.592C488.595 217.611 486.707 218.146 484.781 218.136C482.737 218.166 480.724 217.625 478.97 216.574ZM487.142 209.31C487.466 208.976 487.72 208.581 487.889 208.147C488.057 207.714 488.137 207.251 488.123 206.786V203.462H484.69C483.765 203.446 482.869 203.784 482.184 204.407C481.854 204.707 481.592 205.075 481.416 205.485C481.241 205.896 481.156 206.339 481.167 206.786C481.157 207.251 481.242 207.714 481.415 208.145C481.589 208.577 481.848 208.97 482.177 209.299C482.506 209.628 482.899 209.887 483.331 210.061C483.762 210.234 484.225 210.319 484.69 210.309C485.148 210.315 485.603 210.227 486.025 210.049C486.447 209.871 486.827 209.607 487.142 209.274V209.31ZM493.171 218.39C491.829 217.495 490.77 216.235 490.12 214.758C489.397 213.213 489.031 211.524 489.049 209.818V200.266H495.477V209.346C495.461 209.68 495.515 210.014 495.633 210.326C495.752 210.638 495.934 210.923 496.167 211.162C496.389 211.389 496.655 211.568 496.948 211.686C497.242 211.805 497.558 211.862 497.874 211.852H500.054C500.399 211.852 500.562 212.034 500.562 212.379V219.171C500.575 219.24 500.571 219.312 500.55 219.38C500.529 219.447 500.492 219.509 500.442 219.559C500.392 219.609 500.33 219.646 500.263 219.667C500.195 219.688 500.123 219.692 500.054 219.679H497.874C496.212 219.717 494.575 219.262 493.171 218.372V218.39Z" fill="#373435"/>
<path d="M499.527 219.153V212.361C499.518 212.289 499.525 212.217 499.549 212.149C499.572 212.081 499.611 212.02 499.661 211.969C499.712 211.918 499.774 211.88 499.842 211.856C499.91 211.833 499.982 211.825 500.053 211.834H507.045C507.116 211.825 507.189 211.833 507.256 211.856C507.324 211.88 507.386 211.918 507.437 211.969C507.488 212.02 507.526 212.081 507.549 212.149C507.573 212.217 507.58 212.289 507.572 212.361V219.153C507.572 219.498 507.39 219.661 507.045 219.661H500.053C499.708 219.661 499.527 219.498 499.527 219.153Z" fill="#373435"/>
<path d="M506.536 219.153V212.361C506.536 212.016 506.7 211.834 507.045 211.834H509.224C509.546 211.844 509.867 211.788 510.167 211.669C510.467 211.551 510.739 211.372 510.967 211.144C511.195 210.916 511.374 210.644 511.493 210.344C511.612 210.044 511.668 209.723 511.657 209.401V200.321H517.632V209.873C517.732 212.402 516.949 214.887 515.417 216.901C514.675 217.816 513.727 218.543 512.651 219.023C511.575 219.502 510.401 219.721 509.224 219.661H507.045C506.975 219.674 506.904 219.67 506.836 219.649C506.768 219.628 506.707 219.591 506.657 219.541C506.607 219.491 506.569 219.429 506.548 219.362C506.528 219.294 506.523 219.222 506.536 219.153ZM515.326 216.992C513.793 214.977 513.01 212.493 513.11 209.964V200.321H519.085V209.51C519.074 209.828 519.128 210.145 519.243 210.442C519.359 210.738 519.533 211.008 519.757 211.235C519.975 211.467 520.24 211.65 520.534 211.772C520.828 211.894 521.145 211.953 521.464 211.943C521.782 211.954 522.1 211.896 522.394 211.774C522.688 211.652 522.953 211.468 523.171 211.235C523.394 211.008 523.569 210.738 523.684 210.442C523.8 210.145 523.854 209.828 523.843 209.51V200.321H529.817V209.964C529.917 212.493 529.134 214.977 527.602 216.992C526.835 217.864 525.891 218.563 524.832 219.042C523.774 219.521 522.625 219.769 521.464 219.769C520.302 219.769 519.154 219.521 518.095 219.042C517.037 218.563 516.093 217.864 515.326 216.992ZM527.529 216.992C526.021 214.967 525.251 212.487 525.35 209.964V200.321H531.325V209.51C531.313 209.828 531.367 210.145 531.483 210.442C531.598 210.738 531.773 211.008 531.996 211.235C532.215 211.467 532.48 211.65 532.774 211.772C533.068 211.894 533.385 211.953 533.704 211.943C534.021 211.943 534.334 211.88 534.627 211.757C534.919 211.634 535.184 211.454 535.405 211.227C535.627 211.001 535.801 210.732 535.917 210.437C536.033 210.142 536.09 209.827 536.082 209.51V198.759H542.057V209.964C542.149 212.489 541.373 214.969 539.86 216.992C539.088 217.865 538.139 218.565 537.076 219.044C536.013 219.524 534.86 219.772 533.694 219.772C532.528 219.772 531.376 219.524 530.313 219.044C529.25 218.565 528.301 217.865 527.529 216.992ZM539.751 216.901C538.212 214.889 537.422 212.404 537.517 209.873V198.759H543.492V209.401C543.472 209.733 543.522 210.067 543.638 210.379C543.753 210.692 543.932 210.977 544.163 211.217C544.385 211.443 544.652 211.621 544.945 211.74C545.239 211.858 545.554 211.915 545.87 211.907H548.104C548.175 211.898 548.248 211.906 548.316 211.929C548.384 211.952 548.445 211.991 548.496 212.042C548.547 212.092 548.585 212.154 548.609 212.222C548.632 212.29 548.64 212.362 548.631 212.433V219.225C548.631 219.57 548.449 219.734 548.104 219.734H545.87C544.699 219.778 543.534 219.544 542.471 219.052C541.407 218.559 540.475 217.822 539.751 216.901Z" fill="#373435"/>
<path d="M547.614 219.153V212.361C547.614 212.016 547.777 211.834 548.122 211.834H550.229C550.551 211.844 550.872 211.788 551.172 211.669C551.472 211.551 551.744 211.372 551.972 211.144C552.2 210.916 552.379 210.644 552.497 210.344C552.616 210.044 552.672 209.723 552.662 209.401V200.321H558.637V209.873C558.737 212.402 557.953 214.887 556.421 216.901C555.679 217.816 554.732 218.543 553.655 219.023C552.579 219.502 551.405 219.721 550.229 219.661H548.049C547.986 219.662 547.922 219.649 547.864 219.622C547.806 219.596 547.754 219.557 547.713 219.509C547.671 219.46 547.641 219.403 547.623 219.342C547.606 219.28 547.603 219.216 547.614 219.153ZM556.403 216.992C554.871 214.977 554.087 212.493 554.188 209.964V200.321H560.162V209.51C560.151 209.828 560.205 210.145 560.32 210.441C560.436 210.738 560.611 211.008 560.834 211.235C561.052 211.468 561.316 211.652 561.611 211.774C561.905 211.896 562.222 211.954 562.541 211.943C562.86 211.953 563.176 211.894 563.471 211.772C563.765 211.65 564.03 211.467 564.248 211.235C564.471 211.008 564.646 210.738 564.762 210.441C564.877 210.145 564.931 209.828 564.92 209.51V200.321H570.895V209.964C570.995 212.493 570.211 214.977 568.679 216.992C567.912 217.864 566.968 218.563 565.909 219.042C564.851 219.521 563.703 219.769 562.541 219.769C561.379 219.769 560.231 219.521 559.173 219.042C558.114 218.563 557.17 217.864 556.403 216.992ZM568.606 216.901C567.098 214.876 566.329 212.396 566.427 209.873V200.321H572.402V209.401C572.383 209.733 572.432 210.066 572.548 210.379C572.663 210.692 572.843 210.977 573.074 211.217C573.287 211.439 573.544 211.614 573.828 211.733C574.113 211.852 574.418 211.911 574.726 211.907H576.542V198.832H584.006V219.734H574.672C573.509 219.775 572.353 219.54 571.298 219.047C570.244 218.555 569.321 217.819 568.606 216.901Z" fill="#373435"/>
<path d="M598.77 224.601C599.939 224.024 600.987 223.229 601.857 222.258C602.412 221.508 602.7 220.594 602.674 219.661H599.26C597.271 219.69 595.308 219.208 593.558 218.263C591.858 217.372 590.433 216.034 589.436 214.395C588.411 212.764 587.876 210.873 587.892 208.947C587.872 206.94 588.406 204.967 589.436 203.245C590.428 201.535 591.849 200.114 593.558 199.122C595.284 198.103 597.256 197.576 599.26 197.597C601.183 197.586 603.071 198.114 604.708 199.122C606.354 200.123 607.703 201.547 608.613 203.245C609.548 204.999 610.029 206.959 610.011 208.947V216.519C610.122 219.202 609.612 221.874 608.522 224.328C607.427 226.453 605.785 228.246 603.764 229.522C600.7 231.436 597.481 233.088 594.139 234.461L591.797 227.887C594.975 226.489 597.263 225.418 598.77 224.601ZM602.674 212.306V208.82C602.689 208.363 602.614 207.908 602.452 207.481C602.29 207.054 602.044 206.663 601.73 206.332C601.416 206.011 601.04 205.759 600.624 205.59C600.209 205.422 599.763 205.34 599.315 205.351C598.85 205.337 598.387 205.416 597.953 205.585C597.519 205.753 597.124 206.007 596.791 206.332C596.152 207.006 595.796 207.9 595.796 208.829C595.796 209.758 596.152 210.651 596.791 211.326C597.124 211.65 597.519 211.904 597.953 212.073C598.387 212.241 598.85 212.321 599.315 212.306H602.674ZM609.739 211.834H612.226C612.571 211.834 612.735 212.016 612.735 212.361V219.153C612.748 219.222 612.744 219.294 612.723 219.362C612.702 219.429 612.665 219.491 612.615 219.541C612.564 219.591 612.503 219.628 612.435 219.649C612.368 219.67 612.296 219.674 612.226 219.661H609.739V211.834Z" fill="#373435"/>
<path d="M611.7 219.153V212.361C611.691 212.29 611.699 212.217 611.722 212.149C611.745 212.081 611.784 212.02 611.835 211.969C611.885 211.918 611.947 211.88 612.015 211.856C612.083 211.833 612.155 211.825 612.227 211.834H615.604C615.923 211.837 616.239 211.775 616.533 211.653C616.827 211.531 617.094 211.352 617.318 211.125C617.541 210.898 617.717 210.628 617.835 210.332C617.952 210.036 618.009 209.719 618.001 209.401V206.077H623.958V209.873C624.063 212.4 623.286 214.884 621.76 216.901C621.023 217.812 620.082 218.537 619.012 219.016C617.942 219.496 616.775 219.717 615.604 219.661H612.19C611.972 219.661 611.7 219.498 611.7 219.153ZM623.304 218.245C621.668 217.242 620.332 215.818 619.436 214.122C618.492 212.372 618.011 210.409 618.038 208.42V205.042H614.823V197.633H628.825C630.813 197.606 632.776 198.087 634.527 199.031C636.218 199.926 637.641 201.255 638.649 202.881C639.671 204.546 640.2 206.467 640.175 208.42C640.17 211.429 638.972 214.313 636.845 216.44C634.717 218.568 631.833 219.765 628.825 219.77C626.877 219.798 624.961 219.269 623.304 218.245ZM631.313 210.981C631.636 210.65 631.889 210.258 632.057 209.827C632.226 209.397 632.306 208.937 632.293 208.475C632.307 208.026 632.228 207.579 632.059 207.163C631.89 206.747 631.636 206.371 631.313 206.059C630.983 205.741 630.593 205.492 630.166 205.327C629.739 205.161 629.283 205.083 628.825 205.097H625.392V208.475C625.38 208.935 625.459 209.393 625.624 209.823C625.789 210.253 626.038 210.647 626.355 210.981C626.671 211.315 627.055 211.579 627.481 211.754C627.906 211.93 628.364 212.013 628.825 211.998C629.291 212.003 629.754 211.91 630.182 211.725C630.61 211.541 630.996 211.269 631.313 210.926V210.981Z" fill="#373435"/>
<path d="M812.071 96.735H835.062C838.189 96.7339 841.271 95.9928 844.056 94.5724C846.841 93.152 849.251 91.0927 851.088 88.5627L878.339 50.9891C879.08 49.9583 879.525 48.7438 879.624 47.4778C879.723 46.2119 879.472 44.943 878.9 43.8095C878.327 42.6761 877.455 41.7214 876.377 41.0497C875.3 40.378 874.058 40.0149 872.789 40H774.387C773.117 40.0149 771.876 40.378 770.798 41.0497C769.72 41.7214 768.848 42.6761 768.275 43.8095C767.703 44.943 767.453 46.2119 767.552 47.4778C767.651 48.7438 768.095 49.9583 768.837 50.9891L796.101 88.5627C797.932 91.0859 800.332 93.1412 803.108 94.5614C805.883 95.9815 808.954 96.7262 812.071 96.735Z" fill="#488FF7"/>
<path d="M853.558 109.555L860.565 131.45C861.516 134.428 863.158 137.138 865.357 139.359C867.557 141.58 870.251 143.249 873.219 144.229L917.314 158.756C918.524 159.148 919.819 159.199 921.056 158.904C922.293 158.609 923.426 157.979 924.33 157.084C925.233 156.189 925.874 155.063 926.18 153.828C926.487 152.594 926.449 151.299 926.069 150.084L896.14 56.3864C895.744 55.179 895.025 54.1035 894.059 53.2773C893.094 52.4512 891.92 51.906 890.666 51.7013C889.412 51.4965 888.126 51.6402 886.948 52.1165C885.77 52.5928 884.745 53.3834 883.986 54.4022L856.472 91.7399C854.609 94.266 853.373 97.1987 852.866 100.296C852.36 103.394 852.597 106.568 853.558 109.555Z" fill="#373435"/>
<path d="M855.07 155.759L836.186 168.871C833.621 170.653 831.513 173.016 830.035 175.767C828.557 178.519 827.75 181.58 827.68 184.703L826.737 231.115C826.715 232.39 827.045 233.646 827.691 234.746C828.337 235.846 829.273 236.746 830.397 237.348C831.522 237.951 832.79 238.231 834.063 238.16C835.337 238.088 836.565 237.667 837.615 236.942L918.381 180.818C919.422 180.086 920.241 179.082 920.749 177.916C921.258 176.75 921.436 175.467 921.264 174.206C921.092 172.946 920.577 171.757 919.775 170.77C918.973 169.782 917.915 169.034 916.716 168.608L872.885 153.345C869.936 152.314 866.784 151.996 863.688 152.415C860.592 152.835 857.639 153.981 855.07 155.759Z" fill="#373435"/>
<path d="M813.487 170.689L795.338 156.578C792.868 154.658 789.979 153.351 786.906 152.762C783.834 152.174 780.666 152.321 777.661 153.192L733.081 166.138C731.859 166.498 730.76 167.188 729.905 168.132C729.049 169.076 728.47 170.237 728.231 171.488C727.991 172.739 728.101 174.032 728.548 175.225C728.995 176.418 729.761 177.465 730.764 178.251L808.464 238.607C809.473 239.366 810.67 239.835 811.926 239.964C813.182 240.093 814.449 239.876 815.591 239.338C816.733 238.8 817.706 237.96 818.407 236.91C819.107 235.859 819.507 234.637 819.564 233.376L821.104 186.978C821.215 183.854 820.582 180.748 819.257 177.916C817.933 175.084 815.955 172.607 813.487 170.689Z" fill="#373435"/>
<path d="M786.403 132.283L793.812 110.527C794.824 107.568 795.119 104.412 794.673 101.317C794.227 98.2217 793.052 95.277 791.245 92.725L764.466 54.8046C763.727 53.7663 762.716 52.9517 761.544 52.4502C760.373 51.9488 759.085 51.7798 757.824 51.9619C756.562 52.1439 755.375 52.67 754.393 53.4823C753.411 54.2946 752.672 55.3618 752.256 56.5667L720.538 149.654C720.131 150.862 720.065 152.158 720.347 153.4C720.628 154.643 721.247 155.784 722.134 156.699C723.021 157.613 724.143 158.265 725.376 158.584C726.61 158.903 727.907 158.876 729.127 158.507L773.527 144.826C776.509 143.897 779.23 142.277 781.468 140.097C783.705 137.918 785.396 135.24 786.403 132.283Z" fill="#488FF7"/>
</svg>
