<svg width="150" height="146" viewBox="0 0 150 146" fill="none" xmlns="http://www.w3.org/2000/svg">
<g clip-path="url(#clip0_3_95)">
<path d="M66.62 41.7071H83.19C85.4434 41.7063 87.6646 41.1722 89.672 40.1485C91.6794 39.1248 93.4161 37.6406 94.74 35.8171L114.38 8.73714C114.915 7.99427 115.235 7.11894 115.306 6.20653C115.378 5.29412 115.197 4.37963 114.785 3.56271C114.372 2.7458 113.743 2.05779 112.966 1.57366C112.19 1.08953 111.295 0.82785 110.38 0.817139H39.46C38.5449 0.82785 37.6503 1.08953 36.8736 1.57366C36.097 2.05779 35.4681 2.7458 35.0555 3.56271C34.6429 4.37963 34.4624 5.29412 34.5338 6.20653C34.6051 7.11894 34.9255 7.99427 35.46 8.73714L55.11 35.8171C56.4294 37.6357 58.1596 39.117 60.1597 40.1405C62.1598 41.164 64.3733 41.7008 66.62 41.7071Z" fill="#488FF7"/>
<path d="M96.5201 50.9471L101.57 66.7271C102.255 68.8732 103.439 70.8265 105.024 72.4273C106.609 74.0281 108.551 75.2308 110.69 75.9371L142.47 86.4071C143.342 86.6891 144.275 86.7258 145.167 86.5132C146.059 86.3007 146.875 85.847 147.527 85.2019C148.178 84.5567 148.639 83.7449 148.86 82.8552C149.082 81.9654 149.054 81.0321 148.78 80.1571L127.21 12.6271C126.925 11.7569 126.406 10.9818 125.71 10.3864C125.014 9.79091 124.168 9.39798 123.265 9.25044C122.361 9.1029 121.434 9.20642 120.585 9.54969C119.736 9.89297 118.997 10.4628 118.45 11.1971L98.6201 38.1071C97.2774 39.9276 96.3867 42.0413 96.0216 44.2738C95.6565 46.5063 95.8273 48.7936 96.5201 50.9471Z" fill="#373435"/>
<path d="M97.6099 84.2471L83.9999 93.6971C82.1512 94.9813 80.6322 96.6843 79.5669 98.6672C78.5016 100.65 77.9201 102.857 77.8699 105.107L77.1899 138.557C77.1742 139.476 77.4122 140.382 77.8776 141.174C78.343 141.967 79.0179 142.616 79.8281 143.05C80.6383 143.484 81.5525 143.686 82.4702 143.635C83.3878 143.583 84.2735 143.279 85.0299 142.757L143.24 102.307C143.99 101.78 144.58 101.056 144.947 100.216C145.313 99.3754 145.441 98.4504 145.317 97.542C145.193 96.6337 144.822 95.7768 144.244 95.0652C143.666 94.3536 142.904 93.8146 142.04 93.5071L110.45 82.5071C108.324 81.7642 106.053 81.5346 103.821 81.837C101.59 82.1394 99.4614 82.9652 97.6099 84.2471Z" fill="#373435"/>
<path d="M67.64 95.0071L54.56 84.8371C52.7798 83.4536 50.6973 82.5112 48.483 82.0871C46.2687 81.663 43.9854 81.7692 41.82 82.3971L9.68997 91.7271C8.80946 91.987 8.0175 92.4843 7.4009 93.1645C6.78431 93.8446 6.36688 94.6814 6.19439 95.5832C6.0219 96.4849 6.10101 97.4167 6.42303 98.2764C6.74505 99.1361 7.29753 99.8906 8.01995 100.457L64.02 143.957C64.7472 144.504 65.6098 144.842 66.515 144.935C67.4201 145.028 68.3334 144.872 69.1565 144.484C69.9796 144.096 70.6812 143.491 71.1858 142.734C71.6904 141.977 71.9788 141.096 72.02 140.187L73.13 106.747C73.2097 104.495 72.7535 102.257 71.7991 100.216C70.8446 98.1748 69.4192 96.3896 67.64 95.0071Z" fill="#373435"/>
<path d="M48.12 67.3271L53.46 51.6471C54.1896 49.5148 54.4024 47.2398 54.0807 45.0092C53.7591 42.7786 52.9123 40.6564 51.61 38.8171L32.31 11.4871C31.7772 10.7388 31.0486 10.1517 30.2041 9.79029C29.3596 9.42887 28.4318 9.30709 27.5227 9.4383C26.6135 9.56951 25.7581 9.94864 25.0502 10.5341C24.3423 11.1195 23.8095 11.8887 23.51 12.7571L0.64999 79.8471C0.357018 80.7174 0.309355 81.6515 0.512233 82.5471C0.715111 83.4426 1.16069 84.265 1.80011 84.9241C2.43952 85.5831 3.24809 86.0533 4.13711 86.2832C5.02613 86.513 5.96127 86.4936 6.83999 86.2271L38.84 76.3671C40.9896 75.6978 42.9506 74.5301 44.5633 72.9592C46.176 71.3882 47.3946 69.4584 48.12 67.3271Z" fill="#488FF7"/>
</g>
<defs>
<clipPath id="clip0_3_95">
<rect width="150" height="145" fill="white" transform="translate(0 0.647156)"/>
</clipPath>
</defs>
</svg>
