<svg width="1006" height="280" viewBox="0 0 1006 280" fill="none" xmlns="http://www.w3.org/2000/svg">
<path d="M499.025 115.878C499.025 110.692 499.025 115.878 499.025 111.594C499.025 105.405 499.025 108.587 499.025 102.424C499.051 99.5732 500.209 96.8499 502.244 94.8529C504.278 92.856 507.023 91.7491 509.873 91.7756C512.724 91.8022 515.447 92.9602 517.444 94.9947C519.441 97.0292 520.548 99.7737 520.522 102.624C520.522 122.368 520.522 123.37 520.522 143.113C520.75 145.446 520.207 147.79 518.976 149.786C517.745 151.781 515.894 153.319 513.707 154.162C511.592 155.086 509.222 155.252 506.999 154.631C504.776 154.01 502.836 152.641 501.505 150.755C492.736 140.407 484.167 129.884 475.548 119.411L444.781 81.8289C444.205 81.1023 443.528 80.4509 442.075 78.8975V83.9085C442.075 103.401 442.075 122.919 442.075 142.411C442.286 144.43 441.956 146.468 441.119 148.317C440.283 150.166 438.97 151.76 437.315 152.934C435.793 153.98 434.027 154.617 432.188 154.783C430.349 154.95 428.498 154.641 426.812 153.887C425.127 153.132 423.664 151.957 422.563 150.474C421.463 148.991 420.762 147.25 420.528 145.418C420.378 144.003 420.328 142.58 420.378 141.159V54.7447C420.378 53.4419 420.378 52.2393 420.378 50.8111C420.381 48.6062 421.07 46.4568 422.349 44.661C423.629 42.8652 425.435 41.5121 427.518 40.7892C429.537 39.9841 431.762 39.8567 433.858 40.4261C435.955 40.9954 437.81 42.2309 439.144 43.9461C445.608 51.4626 451.847 58.979 458.085 66.7209C471.064 82.5555 484.017 98.4235 496.945 114.325C497.446 114.525 497.822 114.801 499.025 115.878Z" fill="#373435"/>
<path d="M617.935 108.813C618.816 110.789 619.561 112.823 620.165 114.901C620.809 117.169 620.59 119.595 619.549 121.711C618.507 123.826 616.718 125.479 614.527 126.351C612.413 127.35 610.034 127.646 607.739 127.195C605.444 126.744 603.354 125.571 601.774 123.846C601.189 123.253 600.707 122.567 600.346 121.816C597.841 115.377 593.281 113.423 586.641 114.3C582.962 114.713 579.247 114.713 575.567 114.3C572.085 114.024 571.383 115.477 571.458 118.584C571.634 126.802 571.458 135.02 571.458 143.213C571.458 150.153 567.099 154.864 560.735 154.964C554.371 155.064 549.961 150.278 549.961 143.288C549.961 112.688 549.961 82.1045 549.961 51.5377C549.961 44.2718 554.221 40.1128 561.587 40.0877C574.114 40.0877 586.641 39.8121 599.169 40.238C611.696 40.664 621.868 45.0736 629.109 55.6216C638.429 69.1763 637.553 96.0099 619.488 107.485C618.938 107.888 618.419 108.332 617.935 108.813ZM571.508 78.2461C571.508 83.257 571.508 88.268 571.508 93.2789C571.508 94.1809 572.736 95.7844 573.387 95.7844C582.58 96.0814 591.782 95.8472 600.948 95.0829C609.441 94.0807 613.65 86.6394 613.174 76.1916C612.799 67.8984 607.888 62.1359 599.57 61.5095C591.251 60.8831 582.432 61.1587 573.863 60.9834C571.909 60.9834 571.483 61.9855 571.508 63.6642C571.558 68.4747 571.508 73.3353 571.508 78.196V78.2461Z" fill="#373435"/>
<path d="M332.912 61.8352V66.4453C332.912 91.9009 332.912 117.357 332.912 142.812C332.912 149.301 330.156 153.11 324.619 154.588C323.273 154.961 321.866 155.063 320.481 154.886C319.095 154.708 317.759 154.257 316.55 153.557C315.342 152.857 314.285 151.923 313.442 150.809C312.599 149.695 311.986 148.425 311.641 147.072C311.243 145.33 311.058 143.546 311.089 141.76C311.089 112.496 311.089 83.232 311.089 54.0683C311.089 45.4745 315.023 39.8873 325.02 40.213C337.898 40.6389 350.801 40.4134 363.679 40.213C382.896 40.0627 395.248 52.7404 398.756 70.5042C400.835 80.8014 399.051 91.5035 393.745 100.57C393.138 101.866 392.277 103.026 391.213 103.984C390.149 104.941 388.903 105.674 387.551 106.142C386.198 106.609 384.766 106.8 383.338 106.704C381.91 106.607 380.516 106.226 379.238 105.581C377.894 104.991 376.692 104.121 375.711 103.029C374.731 101.936 373.996 100.647 373.554 99.247C373.113 97.8472 372.976 96.3692 373.153 94.9121C373.329 93.455 373.815 92.0524 374.578 90.7985C376.364 87.8373 377.467 84.5145 377.805 81.0728C378.143 77.6311 377.708 74.1573 376.532 70.9051C374.678 65.8941 371.346 62.2111 365.934 62.0357C355.186 61.5847 344.337 61.8352 332.912 61.8352Z" fill="#373435"/>
<path d="M354.609 119.461C360.67 119.461 365.583 114.548 365.583 108.487C365.583 102.426 360.67 97.5132 354.609 97.5132C348.548 97.5132 343.635 102.426 343.635 108.487C343.635 114.548 348.548 119.461 354.609 119.461Z" fill="white"/>
<path d="M509.673 62.0107C515.734 62.0107 520.647 57.0975 520.647 51.0367C520.647 44.976 515.734 40.0627 509.673 40.0627C503.612 40.0627 498.699 44.976 498.699 51.0367C498.699 57.0975 503.612 62.0107 509.673 62.0107Z" fill="white"/>
<path d="M509.673 87.3912C515.734 87.3912 520.647 82.478 520.647 76.4172C520.647 70.3565 515.734 65.4432 509.673 65.4432C503.612 65.4432 498.699 70.3565 498.699 76.4172C498.699 82.478 503.612 87.3912 509.673 87.3912Z" fill="white"/>
<path d="M628.458 154.939C634.519 154.939 639.432 150.025 639.432 143.965C639.432 137.904 634.519 132.991 628.458 132.991C622.398 132.991 617.484 137.904 617.484 143.965C617.484 150.025 622.398 154.939 628.458 154.939Z" fill="white"/>
<path d="M85.7387 216.574C84.0125 215.577 82.5736 214.151 81.562 212.433C80.529 210.718 79.9887 208.752 80.0002 206.749C79.987 204.821 80.5291 202.93 81.562 201.301C82.5943 199.666 84.0335 198.327 85.7387 197.415C87.4908 196.454 89.4608 195.96 91.4591 195.981H94.8913V192.657H102.246V206.768C102.273 208.756 101.792 210.719 100.848 212.47C99.9578 214.165 98.6279 215.588 96.9978 216.592C95.338 217.628 93.4152 218.164 91.4591 218.136C89.4452 218.149 87.4663 217.609 85.7387 216.574ZM93.9107 209.31C94.235 208.976 94.489 208.581 94.6575 208.147C94.8259 207.714 94.9055 207.251 94.8913 206.786V203.462H91.4591C90.5339 203.446 89.6376 203.784 88.953 204.407C88.6224 204.707 88.3605 205.075 88.185 205.485C88.0095 205.896 87.9246 206.339 87.9361 206.786C87.9262 207.251 88.0105 207.714 88.1841 208.145C88.3576 208.577 88.6167 208.97 88.9459 209.299C89.275 209.628 89.6673 209.887 90.0992 210.061C90.5312 210.234 90.9937 210.319 91.4591 210.309C91.9171 210.315 92.3716 210.227 92.7936 210.049C93.2157 209.871 93.5961 209.607 93.9107 209.274V209.31ZM99.9397 218.39C98.5973 217.495 97.5388 216.235 96.8888 214.758C96.1656 213.213 95.7994 211.524 95.8174 209.818V200.266H102.246V209.346C102.23 209.68 102.283 210.014 102.402 210.326C102.521 210.638 102.703 210.923 102.936 211.162C103.157 211.389 103.423 211.568 103.717 211.686C104.011 211.805 104.326 211.862 104.643 211.852H106.822C107.167 211.852 107.331 212.034 107.331 212.379V219.171C107.344 219.24 107.34 219.312 107.319 219.38C107.298 219.447 107.261 219.509 107.211 219.559C107.16 219.609 107.099 219.646 107.031 219.667C106.964 219.688 106.892 219.692 106.822 219.679H104.57C102.933 219.703 101.323 219.248 99.9397 218.372V218.39Z" fill="white"/>
<path d="M106.386 219.153V212.361C106.378 212.289 106.385 212.217 106.408 212.149C106.432 212.081 106.47 212.02 106.521 211.969C106.572 211.918 106.634 211.88 106.702 211.856C106.769 211.833 106.842 211.825 106.913 211.834H109.71C110.026 211.839 110.341 211.776 110.632 211.651C110.923 211.526 111.184 211.341 111.399 211.108C111.62 210.883 111.796 210.616 111.914 210.323C112.032 210.03 112.092 209.717 112.089 209.401V198.759H119.516V209.873C119.529 211.589 119.077 213.277 118.208 214.758C117.376 216.259 116.16 217.512 114.685 218.39C113.194 219.263 111.493 219.715 109.764 219.697H106.913C106.477 219.661 106.386 219.498 106.386 219.153ZM112.161 187.718H118.79V194.419H112.161V187.718Z" fill="white"/>
<path d="M128.287 218.353C126.812 217.476 125.597 216.223 124.764 214.722C123.896 213.241 123.444 211.553 123.457 209.837V184.722H130.939V209.401C130.919 209.733 130.969 210.066 131.085 210.379C131.2 210.692 131.379 210.977 131.611 211.217C131.824 211.439 132.081 211.614 132.365 211.733C132.65 211.852 132.955 211.911 133.263 211.907H136.114C136.185 211.898 136.258 211.905 136.326 211.929C136.394 211.952 136.455 211.991 136.506 212.041C136.557 212.092 136.595 212.154 136.619 212.222C136.642 212.29 136.65 212.362 136.641 212.433V219.225C136.641 219.57 136.459 219.734 136.114 219.734H133.209C131.473 219.729 129.772 219.252 128.287 218.353Z" fill="white"/>
<path d="M135.606 219.153V212.361C135.606 212.016 135.769 211.834 136.114 211.834H141.726C142.042 211.839 142.356 211.776 142.647 211.651C142.938 211.526 143.2 211.341 143.414 211.108C143.636 210.883 143.811 210.616 143.93 210.323C144.048 210.03 144.108 209.717 144.104 209.401V198.759H151.514V209.873C151.533 211.588 151.087 213.276 150.224 214.758C149.387 216.255 148.172 217.507 146.701 218.39C145.209 219.263 143.509 219.715 141.78 219.697H136.114C136.041 219.713 135.965 219.709 135.893 219.686C135.822 219.664 135.758 219.623 135.707 219.568C135.655 219.513 135.619 219.446 135.602 219.374C135.584 219.301 135.585 219.225 135.606 219.153ZM136.169 224.128H142.815V230.757H136.169V224.128ZM145.503 224.128H152.204V230.757H145.503V224.128Z" fill="white"/>
<path d="M155.817 184.722H163.299V219.661H155.817V184.722Z" fill="white"/>
<path d="M165.533 224.691C166.468 223.968 167.185 223 167.603 221.895C167.999 220.477 168.17 219.007 168.112 217.536V200.321H175.593V217.536C175.669 219.968 175.3 222.393 174.504 224.691C173.706 226.654 172.418 228.38 170.763 229.703C168.39 231.553 165.812 233.125 163.081 234.389L160.285 228.123C162.119 227.115 163.873 225.967 165.533 224.691Z" fill="white"/>
<path d="M197.058 226.544C194.532 225.07 192.43 222.968 190.957 220.442C189.46 217.914 188.681 215.026 188.705 212.088V202.391H196.169V211.689C196.16 213.312 196.593 214.906 197.422 216.301C198.228 217.702 199.394 218.862 200.799 219.661C202.193 220.492 203.789 220.926 205.412 220.914C207.058 220.929 208.678 220.496 210.097 219.661C211.505 218.859 212.676 217.699 213.493 216.299C214.309 214.9 214.741 213.309 214.746 211.689V200.321H222.01V212.088C222.028 215.02 221.263 217.904 219.794 220.442C218.362 222.963 216.296 225.066 213.802 226.544C211.284 228.048 208.399 228.828 205.466 228.795C202.51 228.829 199.602 228.05 197.058 226.544ZM201.925 195.508H208.626V202.137H201.925V195.508ZM219.34 217.046C218.224 214.794 217.711 212.291 217.851 209.782V200.23H222.264V209.31C222.248 209.644 222.301 209.977 222.42 210.29C222.539 210.602 222.721 210.887 222.954 211.126C223.176 211.347 223.439 211.522 223.729 211.641C224.019 211.759 224.33 211.819 224.643 211.816H226.877C226.948 211.807 227.02 211.815 227.088 211.838C227.156 211.861 227.218 211.9 227.269 211.951C227.32 212.001 227.358 212.063 227.381 212.131C227.405 212.199 227.412 212.271 227.403 212.343V219.134C227.403 219.479 227.222 219.643 226.877 219.643H224.643C223.604 219.754 222.555 219.569 221.617 219.11C220.679 218.65 219.889 217.935 219.34 217.046Z" fill="white"/>
<path d="M226.368 219.153V212.361C226.368 212.016 226.532 211.834 226.877 211.834H232.47C232.787 211.842 233.103 211.782 233.394 211.656C233.686 211.531 233.947 211.344 234.159 211.108C234.387 210.886 234.567 210.621 234.688 210.327C234.81 210.034 234.871 209.718 234.867 209.401V198.759H242.276V209.873C242.287 211.587 241.842 213.272 240.987 214.758C240.144 216.251 238.931 217.502 237.464 218.39C235.966 219.264 234.259 219.715 232.525 219.697H226.877C226.804 219.713 226.728 219.709 226.656 219.686C226.585 219.664 226.52 219.623 226.469 219.568C226.418 219.513 226.382 219.446 226.364 219.374C226.347 219.301 226.348 219.225 226.368 219.153ZM226.931 224.128H233.505V230.757H226.877L226.931 224.128ZM236.265 224.128H242.948V230.757H236.265V224.128Z" fill="white"/>
<path d="M257.295 224.601C258.464 224.024 259.512 223.229 260.382 222.258C260.942 221.51 261.236 220.596 261.217 219.661H257.839C255.851 219.688 253.888 219.207 252.137 218.263C250.441 217.366 249.017 216.03 248.015 214.395C247.004 212.758 246.475 210.87 246.489 208.947C246.471 206.943 246.998 204.972 248.015 203.245C249.012 201.539 250.432 200.119 252.137 199.122C253.864 198.106 255.835 197.578 257.839 197.597C259.761 197.592 261.647 198.12 263.287 199.122C264.924 200.13 266.264 201.552 267.174 203.245C268.109 204.999 268.589 206.959 268.572 208.947V216.519C268.679 219.2 268.176 221.87 267.101 224.328C266.003 226.429 264.376 228.207 262.379 229.486C259.316 231.4 256.096 233.052 252.755 234.425L250.43 227.851C253.505 226.519 255.793 225.436 257.295 224.601ZM261.217 212.306V208.82C261.229 208.362 261.15 207.906 260.985 207.479C260.819 207.052 260.571 206.662 260.255 206.332C259.941 206.011 259.564 205.759 259.149 205.59C258.733 205.422 258.288 205.34 257.839 205.351C257.375 205.34 256.912 205.421 256.479 205.589C256.046 205.758 255.65 206.01 255.315 206.332C254.677 207.006 254.321 207.9 254.321 208.829C254.321 209.758 254.677 210.651 255.315 211.326C255.65 211.648 256.046 211.9 256.479 212.068C256.912 212.237 257.375 212.317 257.839 212.306H261.217ZM268.263 211.834H270.751C270.822 211.825 270.895 211.833 270.963 211.856C271.03 211.88 271.092 211.918 271.143 211.969C271.194 212.02 271.232 212.081 271.256 212.149C271.279 212.217 271.286 212.29 271.278 212.361V219.153C271.278 219.498 271.096 219.661 270.751 219.661H268.263V211.834Z" fill="white"/>
<path d="M270.242 219.153V212.361C270.242 212.016 270.406 211.834 270.751 211.834H273.547C273.864 211.839 274.178 211.776 274.469 211.651C274.76 211.526 275.022 211.341 275.236 211.108C275.464 210.886 275.644 210.62 275.766 210.327C275.887 210.034 275.948 209.718 275.944 209.401V198.759H283.354V209.873C283.364 211.587 282.919 213.272 282.064 214.758C281.22 216.256 279.999 217.508 278.523 218.39C277.032 219.265 275.331 219.718 273.602 219.697H270.751C270.677 219.713 270.601 219.709 270.53 219.686C270.459 219.663 270.394 219.623 270.343 219.568C270.292 219.513 270.256 219.446 270.238 219.373C270.22 219.301 270.222 219.225 270.242 219.153ZM276.09 187.718H282.736V194.419H276.09V187.718Z" fill="white"/>
<path d="M304.674 226.544C302.147 225.07 300.045 222.968 298.572 220.442C297.075 217.914 296.297 215.026 296.32 212.088V202.391H303.784V211.689C303.775 213.312 304.208 214.906 305.037 216.301C305.849 217.702 307.015 218.864 308.417 219.674C309.819 220.483 311.408 220.911 313.027 220.914C314.659 220.914 316.262 220.488 317.679 219.679C319.096 218.87 320.278 217.706 321.108 216.301C321.937 214.906 322.37 213.312 322.361 211.689V200.321H329.625V212.088C329.643 215.02 328.879 217.904 327.41 220.442C325.977 222.963 323.912 225.066 321.417 226.544C318.898 228.047 316.014 228.826 313.082 228.795C310.126 228.829 307.217 228.05 304.674 226.544ZM326.938 217.155C325.837 214.898 325.331 212.398 325.467 209.891V200.248H329.879V209.51C329.872 209.829 329.929 210.146 330.048 210.443C330.166 210.74 330.344 211.009 330.57 211.235C330.788 211.462 331.05 211.642 331.341 211.764C331.631 211.886 331.943 211.947 332.258 211.943C332.577 211.954 332.894 211.896 333.189 211.774C333.483 211.652 333.748 211.468 333.965 211.235C334.191 211.009 334.369 210.74 334.487 210.443C334.606 210.146 334.663 209.829 334.655 209.51V200.321H340.648V209.964C340.747 212.487 339.978 214.967 338.469 216.992C337.736 217.913 336.793 218.646 335.719 219.129C334.645 219.613 333.471 219.832 332.295 219.77C331.246 219.884 330.187 219.698 329.239 219.236C328.291 218.773 327.493 218.052 326.938 217.155ZM330.388 189.334H337.016V195.962H330.315L330.388 189.334ZM330.388 180H337.016V186.683H330.315L330.388 180ZM338.324 216.992C336.815 214.967 336.046 212.487 336.145 209.964V200.321H342.119V209.51C342.108 209.828 342.162 210.145 342.277 210.441C342.393 210.738 342.568 211.008 342.791 211.235C343.009 211.467 343.274 211.65 343.569 211.772C343.863 211.894 344.18 211.953 344.498 211.943C344.817 211.954 345.134 211.896 345.428 211.774C345.723 211.652 345.988 211.468 346.205 211.235C346.428 211.008 346.603 210.738 346.719 210.441C346.834 210.145 346.888 209.828 346.877 209.51V198.759H352.852V209.964C352.952 212.492 352.168 214.977 350.636 216.992C349.866 217.865 348.918 218.564 347.857 219.044C346.796 219.523 345.644 219.771 344.48 219.771C343.315 219.771 342.164 219.523 341.103 219.044C340.041 218.564 339.094 217.865 338.324 216.992ZM339.776 189.334H346.423V195.962H339.776V189.334ZM350.545 216.901C349.013 214.887 348.23 212.402 348.33 209.873V198.759H354.304V209.401C354.288 209.735 354.342 210.068 354.46 210.381C354.579 210.693 354.761 210.978 354.994 211.217C355.216 211.438 355.48 211.613 355.77 211.731C356.059 211.85 356.37 211.91 356.683 211.907H358.917C358.988 211.898 359.061 211.905 359.128 211.929C359.196 211.952 359.258 211.991 359.309 212.041C359.36 212.092 359.398 212.154 359.422 212.222C359.445 212.29 359.452 212.362 359.444 212.433V219.225C359.444 219.57 359.262 219.734 358.917 219.734H356.683C355.509 219.781 354.34 219.548 353.273 219.056C352.206 218.564 351.271 217.825 350.545 216.901Z" fill="#373435"/>
<path d="M374.734 211.834C375.187 211.844 375.637 211.756 376.053 211.578C376.47 211.399 376.844 211.134 377.149 210.799C377.759 210.178 378.104 209.345 378.111 208.475C378.106 207.602 377.768 206.764 377.167 206.132C376.862 205.792 376.486 205.523 376.065 205.344C375.645 205.165 375.19 205.081 374.734 205.097C374.282 205.079 373.831 205.157 373.412 205.326C372.992 205.495 372.613 205.751 372.3 206.077C371.99 206.393 371.747 206.768 371.585 207.18C371.423 207.592 371.345 208.032 371.356 208.475C371.335 208.933 371.415 209.39 371.591 209.814C371.767 210.237 372.034 210.617 372.373 210.926C373.016 211.518 373.86 211.843 374.734 211.834H386.501C386.965 211.85 387.427 211.773 387.86 211.607C388.294 211.442 388.69 211.192 389.026 210.872C389.342 210.556 389.594 210.181 389.765 209.768C389.937 209.355 390.025 208.913 390.025 208.466C390.025 208.018 389.937 207.576 389.765 207.163C389.594 206.75 389.342 206.375 389.026 206.059C388.69 205.739 388.294 205.489 387.86 205.324C387.427 205.158 386.965 205.081 386.501 205.097H361.078V197.669H386.501C388.492 197.646 390.455 198.134 392.204 199.086C393.898 199.976 395.322 201.306 396.326 202.936C397.361 204.596 397.897 206.518 397.869 208.475C397.882 210.454 397.341 212.398 396.308 214.086C395.289 215.783 393.85 217.19 392.131 218.172C390.42 219.16 388.477 219.674 386.501 219.661H374.316C372.288 219.712 370.294 219.128 368.614 217.99C367.054 216.899 365.803 215.422 364.982 213.705C364.176 212.079 363.754 210.289 363.747 208.475C363.767 206.785 364.251 205.132 365.145 203.699C366.093 202.081 367.437 200.732 369.05 199.776C370.766 198.751 372.734 198.222 374.734 198.251C376.892 198.131 379.018 198.824 380.69 200.194C382.052 201.349 383.091 202.838 383.705 204.516C384.19 205.783 384.472 207.119 384.54 208.475C384.616 210.658 384.088 212.819 383.015 214.722C382.073 216.269 380.722 217.526 379.11 218.354C377.636 219.145 375.99 219.563 374.316 219.57H358.808L358.917 211.743L374.734 211.834Z" fill="#373435"/>
<path d="M412.615 224.601C413.788 224.03 414.836 223.234 415.702 222.258C416.27 221.514 416.565 220.597 416.537 219.661H413.16C411.171 219.688 409.208 219.207 407.458 218.263C405.761 217.366 404.338 216.03 403.335 214.395C402.324 212.758 401.796 210.87 401.81 208.947C401.791 206.943 402.319 204.972 403.335 203.245C404.332 201.539 405.752 200.119 407.458 199.122C409.185 198.106 411.156 197.578 413.16 197.597C415.082 197.589 416.969 198.117 418.608 199.122C420.249 200.124 421.591 201.547 422.494 203.245C423.438 204.995 423.919 206.958 423.892 208.947V216.519C424 219.2 423.497 221.87 422.421 224.328C421.319 226.453 419.671 228.246 417.645 229.522C414.584 231.44 411.364 233.092 408.02 234.461L405.696 227.887C408.807 226.532 411.114 225.436 412.615 224.601ZM416.537 212.306V208.82C416.549 208.362 416.47 207.906 416.305 207.479C416.14 207.052 415.892 206.662 415.575 206.332C415.262 206.01 414.886 205.757 414.47 205.589C414.054 205.42 413.608 205.339 413.16 205.351C412.698 205.338 412.238 205.419 411.807 205.587C411.377 205.756 410.984 206.009 410.654 206.332C410.015 207.006 409.659 207.9 409.659 208.829C409.659 209.758 410.015 210.651 410.654 211.326C410.984 211.649 411.377 211.902 411.807 212.07C412.238 212.239 412.698 212.319 413.16 212.306H416.537Z" fill="#373435"/>
<path d="M428.378 225.218C429.138 224.298 429.678 223.218 429.957 222.058C430.242 220.568 430.364 219.052 430.321 217.536V200.321H437.748V217.536C437.803 219.862 437.534 222.185 436.949 224.437C436.398 226.251 435.47 227.928 434.225 229.358C432.518 231.229 430.619 232.915 428.559 234.389L424.419 228.941C425.876 227.854 427.204 226.605 428.378 225.218ZM428.105 189.225H434.733V195.908H428.105V189.225ZM434.407 216.973C433.096 214.845 432.462 212.369 432.591 209.873V200.321H437.784V209.401C437.765 209.733 437.815 210.066 437.93 210.379C438.046 210.691 438.225 210.977 438.456 211.217C438.678 211.443 438.944 211.621 439.238 211.739C439.532 211.858 439.847 211.915 440.163 211.907H444.013C444.358 211.907 444.522 212.088 444.522 212.433V219.225C444.535 219.295 444.53 219.366 444.509 219.434C444.489 219.502 444.451 219.563 444.401 219.613C444.351 219.663 444.29 219.701 444.222 219.721C444.154 219.742 444.083 219.747 444.013 219.734H440.163C439.046 219.817 437.927 219.605 436.917 219.121C435.907 218.637 435.041 217.896 434.407 216.973ZM428.105 180.654H434.733V187.282H428.105V180.654ZM437.439 189.207H444.158V195.89H437.439V189.207Z" fill="#373435"/>
<path d="M443.451 219.153V212.361C443.438 212.289 443.443 212.215 443.465 212.145C443.487 212.075 443.525 212.012 443.577 211.96C443.629 211.908 443.692 211.87 443.762 211.848C443.832 211.826 443.906 211.821 443.978 211.834H449.607C449.924 211.839 450.238 211.776 450.529 211.651C450.82 211.526 451.081 211.341 451.296 211.108C451.518 210.883 451.693 210.616 451.811 210.323C451.93 210.03 451.989 209.717 451.986 209.401V198.759H459.413V209.873C459.426 211.589 458.974 213.277 458.106 214.758C457.274 216.259 456.058 217.512 454.583 218.39C453.091 219.263 451.39 219.715 449.662 219.697H443.978C443.614 219.661 443.451 219.498 443.451 219.153ZM443.923 224.074H450.606V230.72H443.923V224.074ZM453.257 233.354H459.886V240H453.239L453.257 233.354ZM453.257 224.074H459.886V230.72H453.239L453.257 224.074Z" fill="#373435"/>
<path d="M478.227 216.574C476.501 215.577 475.062 214.151 474.05 212.433C473.017 210.718 472.477 208.752 472.488 206.749C472.475 204.821 473.017 202.93 474.05 201.301C475.082 199.666 476.522 198.327 478.227 197.415C479.979 196.454 481.949 195.96 483.947 195.981H487.379V192.657H494.734V206.768C494.761 208.756 494.28 210.719 493.336 212.47C492.446 214.165 491.116 215.588 489.486 216.592C487.852 217.611 485.963 218.146 484.038 218.136C481.993 218.166 479.981 217.625 478.227 216.574ZM486.399 209.31C486.723 208.976 486.977 208.581 487.146 208.147C487.314 207.714 487.393 207.251 487.379 206.786V203.462H483.947C483.022 203.446 482.126 203.784 481.441 204.407C481.11 204.707 480.849 205.075 480.673 205.485C480.498 205.896 480.413 206.339 480.424 206.786C480.414 207.251 480.499 207.714 480.672 208.145C480.846 208.577 481.105 208.97 481.434 209.299C481.763 209.628 482.155 209.887 482.587 210.061C483.019 210.234 483.482 210.319 483.947 210.309C484.405 210.315 484.86 210.227 485.282 210.049C485.704 209.871 486.084 209.607 486.399 209.274V209.31ZM492.428 218.39C491.085 217.495 490.027 216.235 489.377 214.758C488.654 213.213 488.287 211.524 488.305 209.818V200.266H494.734V209.346C494.718 209.68 494.771 210.014 494.89 210.326C495.009 210.638 495.191 210.923 495.424 211.162C495.645 211.389 495.911 211.568 496.205 211.686C496.499 211.805 496.814 211.862 497.131 211.852H499.31C499.655 211.852 499.819 212.034 499.819 212.379V219.171C499.832 219.24 499.828 219.312 499.807 219.38C499.786 219.447 499.749 219.509 499.699 219.559C499.648 219.609 499.587 219.646 499.519 219.667C499.452 219.688 499.38 219.692 499.31 219.679H497.131C495.469 219.717 493.832 219.262 492.428 218.372V218.39Z" fill="#373435"/>
<path d="M498.783 219.153V212.361C498.775 212.29 498.782 212.217 498.805 212.149C498.829 212.081 498.867 212.02 498.918 211.969C498.969 211.918 499.031 211.88 499.098 211.856C499.166 211.833 499.239 211.825 499.31 211.834H506.302C506.373 211.825 506.445 211.833 506.513 211.856C506.581 211.88 506.643 211.918 506.693 211.969C506.744 212.02 506.783 212.081 506.806 212.149C506.829 212.217 506.837 212.29 506.828 212.361V219.153C506.828 219.498 506.647 219.661 506.302 219.661H499.31C498.965 219.661 498.783 219.498 498.783 219.153Z" fill="#373435"/>
<path d="M505.793 219.153V212.361C505.793 212.016 505.956 211.834 506.302 211.834H508.481C508.803 211.844 509.124 211.788 509.424 211.67C509.724 211.551 509.996 211.372 510.224 211.144C510.452 210.916 510.631 210.644 510.749 210.344C510.868 210.044 510.924 209.723 510.914 209.401V200.321H516.889V209.873C516.989 212.402 516.205 214.887 514.673 216.901C513.931 217.816 512.984 218.543 511.908 219.023C510.831 219.502 509.657 219.721 508.481 219.661H506.302C506.232 219.674 506.16 219.67 506.093 219.649C506.025 219.628 505.963 219.591 505.913 219.541C505.863 219.491 505.826 219.429 505.805 219.362C505.784 219.294 505.78 219.222 505.793 219.153ZM514.582 216.992C513.05 214.977 512.267 212.493 512.367 209.964V200.321H518.341V209.51C518.33 209.828 518.384 210.145 518.5 210.442C518.615 210.738 518.79 211.008 519.013 211.235C519.232 211.467 519.497 211.65 519.791 211.772C520.085 211.894 520.402 211.953 520.72 211.943C521.039 211.954 521.356 211.896 521.651 211.774C521.945 211.652 522.21 211.468 522.427 211.235C522.651 211.008 522.825 210.738 522.941 210.442C523.057 210.145 523.11 209.828 523.099 209.51V200.321H529.074V209.964C529.174 212.493 528.391 214.977 526.858 216.992C526.091 217.864 525.147 218.563 524.089 219.042C523.03 219.521 521.882 219.769 520.72 219.769C519.559 219.769 518.41 219.521 517.352 219.042C516.293 218.563 515.349 217.864 514.582 216.992ZM526.786 216.992C525.277 214.967 524.508 212.487 524.607 209.964V200.321H530.581V209.51C530.57 209.828 530.624 210.145 530.74 210.442C530.855 210.738 531.03 211.008 531.253 211.235C531.471 211.467 531.736 211.65 532.031 211.772C532.325 211.894 532.642 211.953 532.96 211.943C533.277 211.943 533.591 211.88 533.883 211.757C534.175 211.634 534.44 211.454 534.662 211.227C534.884 211.001 535.058 210.732 535.174 210.437C535.29 210.142 535.346 209.827 535.339 209.51V198.759H541.314V209.964C541.405 212.489 540.63 214.969 539.116 216.992C538.344 217.865 537.395 218.565 536.333 219.044C535.27 219.524 534.117 219.772 532.951 219.772C531.785 219.772 530.632 219.524 529.57 219.044C528.507 218.565 527.558 217.865 526.786 216.992ZM539.007 216.901C537.469 214.889 536.679 212.404 536.774 209.873V198.759H542.748V209.401C542.729 209.733 542.779 210.067 542.894 210.379C543.01 210.692 543.189 210.977 543.42 211.217C543.642 211.443 543.908 211.621 544.202 211.74C544.496 211.858 544.81 211.915 545.127 211.907H547.361C547.432 211.898 547.504 211.906 547.572 211.929C547.64 211.952 547.702 211.991 547.753 212.042C547.804 212.092 547.842 212.154 547.865 212.222C547.889 212.29 547.896 212.362 547.887 212.433V219.225C547.887 219.57 547.706 219.734 547.361 219.734H545.127C543.956 219.778 542.791 219.544 541.727 219.052C540.664 218.559 539.731 217.822 539.007 216.901Z" fill="#373435"/>
<path d="M546.87 219.152V212.361C546.87 212.016 547.034 211.834 547.379 211.834H549.485C549.808 211.844 550.129 211.788 550.428 211.669C550.728 211.551 551.001 211.372 551.229 211.144C551.457 210.916 551.635 210.643 551.754 210.344C551.873 210.044 551.929 209.723 551.919 209.401V200.321H557.893V209.873C557.993 212.402 557.21 214.886 555.678 216.901C554.936 217.816 553.988 218.543 552.912 219.023C551.836 219.502 550.662 219.721 549.485 219.661H547.306C547.242 219.662 547.179 219.649 547.121 219.622C547.063 219.596 547.011 219.557 546.969 219.509C546.928 219.46 546.897 219.403 546.88 219.342C546.863 219.28 546.86 219.215 546.87 219.152ZM555.66 216.991C554.127 214.977 553.344 212.492 553.444 209.964V200.321H559.419V209.51C559.408 209.828 559.462 210.145 559.577 210.441C559.693 210.738 559.867 211.008 560.091 211.235C560.308 211.468 560.573 211.652 560.868 211.774C561.162 211.896 561.479 211.954 561.798 211.943C562.116 211.952 562.433 211.894 562.727 211.772C563.022 211.65 563.286 211.467 563.505 211.235C563.728 211.008 563.903 210.738 564.018 210.441C564.134 210.145 564.188 209.828 564.177 209.51V200.321H570.151V209.964C570.251 212.492 569.468 214.977 567.936 216.991C567.169 217.864 566.225 218.563 565.166 219.042C564.108 219.521 562.959 219.769 561.798 219.769C560.636 219.769 559.488 219.521 558.429 219.042C557.371 218.563 556.427 217.864 555.66 216.991ZM567.863 216.901C566.355 214.876 565.585 212.396 565.684 209.873V200.321H571.659V209.401C571.639 209.733 571.689 210.066 571.805 210.379C571.92 210.691 572.099 210.977 572.33 211.217C572.544 211.439 572.801 211.614 573.085 211.733C573.369 211.852 573.675 211.911 573.983 211.907H575.799V198.832H583.263V219.734H573.929C572.765 219.775 571.609 219.54 570.555 219.047C569.5 218.555 568.578 217.819 567.863 216.901Z" fill="#373435"/>
<path d="M598.027 224.601C599.196 224.024 600.244 223.229 601.114 222.258C601.669 221.508 601.956 220.594 601.931 219.661H598.517C596.528 219.69 594.565 219.208 592.815 218.263C591.115 217.372 589.69 216.034 588.693 214.395C587.668 212.764 587.132 210.873 587.149 208.947C587.129 206.94 587.663 204.967 588.693 203.245C589.684 201.535 591.105 200.114 592.815 199.122C594.541 198.103 596.513 197.576 598.517 197.597C600.44 197.586 602.327 198.114 603.965 199.122C605.611 200.123 606.959 201.547 607.869 203.245C608.805 204.999 609.285 206.959 609.268 208.947V216.519C609.379 219.202 608.869 221.874 607.779 224.328C606.684 226.453 605.041 228.246 603.021 229.522C599.957 231.436 596.737 233.088 593.396 234.461L591.053 227.887C594.231 226.489 596.519 225.418 598.027 224.601ZM601.931 212.306V208.82C601.946 208.363 601.871 207.908 601.708 207.481C601.546 207.054 601.301 206.663 600.987 206.332C600.673 206.011 600.297 205.759 599.881 205.59C599.466 205.422 599.02 205.34 598.572 205.351C598.107 205.337 597.643 205.416 597.21 205.585C596.776 205.753 596.381 206.007 596.047 206.332C595.409 207.006 595.053 207.9 595.053 208.829C595.053 209.758 595.409 210.651 596.047 211.326C596.381 211.65 596.776 211.904 597.21 212.073C597.643 212.241 598.107 212.321 598.572 212.306H601.931ZM608.995 211.834H611.483C611.828 211.834 611.992 212.016 611.992 212.361V219.153C612.005 219.222 612 219.294 611.98 219.362C611.959 219.429 611.921 219.491 611.871 219.541C611.821 219.591 611.76 219.628 611.692 219.649C611.624 219.67 611.553 219.674 611.483 219.661H608.995V211.834Z" fill="#373435"/>
<path d="M610.957 219.153V212.361C610.948 212.289 610.955 212.217 610.979 212.149C611.002 212.081 611.041 212.02 611.091 211.969C611.142 211.918 611.204 211.88 611.272 211.856C611.34 211.833 611.412 211.825 611.483 211.834H614.861C615.18 211.837 615.495 211.775 615.79 211.653C616.084 211.531 616.351 211.352 616.575 211.125C616.798 210.898 616.974 210.628 617.091 210.332C617.209 210.036 617.266 209.719 617.258 209.401V206.077H623.215V209.873C623.32 212.399 622.543 214.884 621.017 216.901C620.28 217.812 619.338 218.537 618.269 219.016C617.199 219.496 616.032 219.717 614.861 219.661H611.447C611.229 219.661 610.957 219.498 610.957 219.153ZM622.561 218.245C620.925 217.242 619.589 215.818 618.693 214.122C617.749 212.372 617.267 210.409 617.295 208.42V205.042H614.08V197.633H628.081C630.07 197.606 632.033 198.087 633.784 199.031C635.475 199.926 636.898 201.255 637.906 202.881C638.928 204.546 639.457 206.467 639.431 208.42C639.427 211.429 638.229 214.313 636.102 216.44C633.974 218.568 631.09 219.765 628.081 219.77C626.134 219.798 624.218 219.269 622.561 218.245ZM630.569 210.981C630.892 210.65 631.146 210.258 631.314 209.827C631.482 209.397 631.563 208.937 631.55 208.475C631.564 208.026 631.484 207.579 631.315 207.163C631.147 206.747 630.892 206.371 630.569 206.059C630.24 205.741 629.85 205.492 629.423 205.326C628.995 205.161 628.539 205.083 628.081 205.097H624.649V208.475C624.637 208.935 624.716 209.393 624.881 209.823C625.046 210.253 625.294 210.647 625.612 210.981C625.928 211.315 626.312 211.579 626.737 211.754C627.163 211.93 627.621 212.013 628.081 211.998C628.548 212.003 629.01 211.91 629.439 211.725C629.867 211.541 630.252 211.269 630.569 210.926V210.981Z" fill="#373435"/>
<path d="M811.328 96.735H834.319C837.446 96.7338 840.528 95.9928 843.313 94.5724C846.098 93.152 848.508 91.0926 850.345 88.5626L877.595 50.989C878.337 49.9583 878.782 48.7438 878.881 47.4778C878.98 46.2118 878.729 44.943 878.157 43.8095C877.584 42.676 876.712 41.7214 875.634 41.0497C874.556 40.3779 873.315 40.0149 872.045 40H773.644C772.374 40.0149 771.133 40.3779 770.055 41.0497C768.977 41.7214 768.105 42.676 767.532 43.8095C766.96 44.943 766.709 46.2118 766.808 47.4778C766.907 48.7438 767.352 49.9583 768.094 50.989L795.358 88.5626C797.189 91.0859 799.589 93.1412 802.364 94.5613C805.14 95.9814 808.211 96.7262 811.328 96.735Z" fill="white"/>
<path d="M852.815 109.555L859.822 131.45C860.772 134.428 862.415 137.138 864.614 139.359C866.814 141.58 869.508 143.249 872.476 144.229L916.571 158.756C917.781 159.148 919.076 159.199 920.313 158.904C921.55 158.609 922.683 157.979 923.586 157.084C924.49 156.189 925.13 155.063 925.437 153.828C925.744 152.594 925.705 151.298 925.326 150.084L895.397 56.3863C895.001 55.179 894.281 54.1035 893.316 53.2773C892.351 52.4511 891.177 51.9059 889.923 51.7012C888.669 51.4965 887.383 51.6401 886.205 52.1164C885.027 52.5927 884.002 53.3834 883.243 54.4022L855.729 91.7399C853.866 94.266 852.63 97.1987 852.123 100.296C851.617 103.394 851.854 106.568 852.815 109.555Z" fill="#373435"/>
<path d="M854.326 155.759L835.443 168.871C832.877 170.653 830.77 173.016 829.292 175.767C827.814 178.519 827.007 181.58 826.937 184.703L825.994 231.115C825.972 232.39 826.302 233.646 826.948 234.746C827.594 235.846 828.53 236.746 829.654 237.348C830.778 237.951 832.047 238.231 833.32 238.16C834.593 238.088 835.822 237.667 836.872 236.942L917.638 180.818C918.679 180.086 919.498 179.082 920.006 177.916C920.515 176.75 920.693 175.467 920.521 174.206C920.349 172.946 919.834 171.757 919.032 170.769C918.23 169.782 917.172 169.034 915.973 168.608L872.142 153.345C869.192 152.314 866.041 151.996 862.945 152.415C859.848 152.835 856.895 153.981 854.326 155.759Z" fill="#373435"/>
<path d="M812.743 170.689L794.595 156.578C792.125 154.658 789.236 153.351 786.163 152.762C783.091 152.174 779.923 152.321 776.918 153.192L732.338 166.138C731.116 166.498 730.017 167.188 729.162 168.132C728.306 169.076 727.727 170.237 727.488 171.488C727.248 172.739 727.358 174.032 727.805 175.225C728.252 176.418 729.018 177.465 730.021 178.251L807.721 238.607C808.73 239.366 809.927 239.835 811.183 239.964C812.438 240.092 813.706 239.876 814.848 239.338C815.99 238.8 816.963 237.96 817.663 236.91C818.363 235.859 818.764 234.637 818.821 233.376L820.361 186.978C820.471 183.854 819.839 180.748 818.514 177.916C817.19 175.084 815.212 172.607 812.743 170.689Z" fill="#373435"/>
<path d="M785.659 132.283L793.069 110.527C794.081 107.568 794.376 104.411 793.93 101.317C793.484 98.2216 792.309 95.2769 790.502 92.7249L763.723 54.8045C762.984 53.7662 761.973 52.9516 760.801 52.4502C759.629 51.9487 758.342 51.7797 757.081 51.9618C755.819 52.1438 754.632 52.6699 753.65 53.4822C752.668 54.2945 751.929 55.3617 751.513 56.5666L719.795 149.654C719.388 150.862 719.322 152.158 719.604 153.4C719.885 154.643 720.503 155.784 721.39 156.698C722.278 157.613 723.4 158.265 724.633 158.584C725.867 158.903 727.164 158.876 728.383 158.506L772.783 144.826C775.766 143.897 778.487 142.277 780.725 140.097C782.962 137.917 784.653 135.24 785.659 132.283Z" fill="white"/>
</svg>
